<svg id="Layer_1" data-name="Layer 1" xmlns="http://www.w3.org/2000/svg" viewBox="0 0 414.44 138.15"><defs><style>.cls-1{fill:#f39200;}.cls-2{fill:#1d71b8;}.cls-3{fill:#3aaa35;}.cls-4{fill:#fff;}</style></defs><rect class="cls-1" width="138.15" height="138.15" rx="2"/><rect class="cls-2" x="138.15" width="138.15" height="138.15" rx="2"/><rect class="cls-3" x="276.3" width="138.15" height="138.15" rx="2"/><path class="cls-4" d="M88.71,108c.05-.21.06-.4.12-.59.23-.74.47-1.49.71-2.23s.53-1.68.8-2.52c.16-.49.2-.51.75-.41l2.93.58,5.4,1.08,4.28.83c.46.08.47.09.62-.35s.34-1,.5-1.51c.53-1.67,1.05-3.33,1.58-5l.45-1.48c0-.11.09-.21.16-.38,2.29.42,4.56.87,6.88,1.35,0,.22,0,.4-.1.57-.47,1.45-1,2.91-1.41,4.36-.35,1.1-.69,2.19-1,3.29-.12.38-.08.43.31.51l4.74.88a3.07,3.07,0,0,0,.24-.48c.37-1.15.72-2.31,1.09-3.47l1.11-3.52c.08-.25.15-.51.24-.76s.17-.33.51-.27l3.55.7,2.93.58a3.81,3.81,0,0,1-.08.55c-.6,1.89-1.21,3.77-1.81,5.65-.25.79-.49,1.59-.73,2.38a1.2,1.2,0,0,0,0,.25l.57.2a41.67,41.67,0,0,1,5.86,2.09,16,16,0,0,1,5.13,3.42,7.42,7.42,0,0,1,2.06,4.16,9.15,9.15,0,0,1-.44,4,8.31,8.31,0,0,1-2.22,3.67,10.58,10.58,0,0,1-4.69,2.56c-.35.1-.71.18-1.17.29l1.36.65a13.92,13.92,0,0,1,3.37,2.29,7.5,7.5,0,0,1,2.24,3.75,6.8,6.8,0,0,1,.12,2.58,13.8,13.8,0,0,1-3.53,7.52,12.54,12.54,0,0,1-6.41,3.62,19.09,19.09,0,0,1-4.2.61c-1,0-2.11.11-3.16.08-1.24,0-2.49-.15-3.73-.26s-2.29-.28-3.44-.41a5.56,5.56,0,0,0-.58,0c-.19.57-.38,1.13-.56,1.69-.42,1.3-.83,2.6-1.24,3.9-.28.89-.56,1.78-.82,2.67-.16.54-.2.58-.76.47l-3.65-.73-2.21-.44c-.5-.1-.52-.11-.38-.6.24-.8.49-1.59.74-2.38s.57-1.81.86-2.71.59-1.84.88-2.75c.12-.36.08-.45-.29-.53l-4.42-.9c-.37-.08-.42,0-.52.28l-1.41,4.53c-.35,1.12-.7,2.25-1.06,3.38a4.28,4.28,0,0,1-.2.43,61.49,61.49,0,0,1-6.85-1.32,2.89,2.89,0,0,1,.08-.5c.39-1.24.78-2.48,1.16-3.71.28-.88.55-1.75.82-2.62.18-.57.37-1.14.55-1.71,0-.08,0-.16.07-.3-1.5-.38-3-.64-4.51-.95l-4.48-.89-4.58-.91a4.35,4.35,0,0,1,.2-.56c.81-1.48,1.64-3,2.46-4.45l.45-.84c.22-.41.29-.45.78-.35l1.85.38c1,.19,2,.41,2.94.55a2.42,2.42,0,0,0,2.87-1.77c.5-1.64,1-3.28,1.5-4.91s1-3,1.45-4.51,1-3.21,1.5-4.81c.4-1.28.82-2.56,1.23-3.84L96.16,114c.16-.5.32-1,.47-1.52a2.35,2.35,0,0,0-1.22-2.85,7.39,7.39,0,0,0-2.33-.75c-1.27-.26-2.55-.49-3.82-.73C89.09,108.09,88.93,108,88.71,108Zm15.55,20.68c-.43,1.33-.83,2.62-1.24,3.92s-.85,2.55-1.22,3.85-.89,2.56-1.18,3.85l.16.1c2.2.41,4.39.85,6.6,1.23a32.19,32.19,0,0,0,6.28.49,14.21,14.21,0,0,0,3.68-.51,5.25,5.25,0,0,0,3.81-3.08,3.89,3.89,0,0,0-.37-3.8,7.36,7.36,0,0,0-2.46-2.14,19.38,19.38,0,0,0-3.83-1.64A74.91,74.91,0,0,0,104.26,128.65Zm1.77-5.59c.21,0,.37.1.54.13,1.66.32,3.32.67,5,1,1,.17,2,.26,3,.33.78,0,1.58,0,2.37,0a10.43,10.43,0,0,0,2.94-.46,4.73,4.73,0,0,0,3.52-3.32,3.62,3.62,0,0,0-.3-2.84,5.72,5.72,0,0,0-2-2,16,16,0,0,0-3.81-1.66,63.62,63.62,0,0,0-7.63-1.67c-.24,0-.34,0-.41.26-.25.82-.53,1.64-.79,2.47l-1.11,3.51c-.3,1-.61,1.93-.91,2.9C106.3,122.13,106.18,122.58,106,123.06Z" transform="translate(-38.37 -53.78)"/><path class="cls-4" d="M220.47,145.82c0-.17.05-.29.09-.4.31-1,.62-2.08.94-3.12s.64-2.08.95-3.12.57-1.93.86-2.89c.42-1.39.85-2.78,1.28-4.18.29-1,.57-1.93.85-2.89s.62-2,.92-3c0-.17.09-.34.16-.58a3,3,0,0,0-.39.08l-5.93,1.74-.43.11a2.87,2.87,0,0,1,.06-.4c.34-1,.69-2,1-3.08.1-.3.22-.59.3-.9a.6.6,0,0,1,.46-.48c1.07-.3,2.14-.63,3.21-.94l3-.87a.61.61,0,0,0,.46-.49c.43-1.46.88-2.92,1.32-4.38l.54-1.86c.3-1,.6-1.92.89-2.88s.57-1.93.86-2.89c.43-1.4.87-2.81,1.29-4.22.29-1,.57-1.9.85-2.85s.65-2.1,1-3.15c.15-.49.28-1,.43-1.47l1-3.15c.11-.37.23-.74.33-1.11a1.67,1.67,0,0,1,1.63-1.26h9.06a1.6,1.6,0,0,1,1,.27,1.32,1.32,0,0,1,.46,1.43c-.16.63-.35,1.24-.54,1.86s-.37,1.24-.56,1.86l-1,3.11-.42,1.43-.9,3c-.46,1.53-.93,3.06-1.39,4.58s-1,3.24-1.47,4.86c-.28.92-.57,1.84-.85,2.76a1.9,1.9,0,0,0,0,.3c1.14-.34,2.24-.67,3.34-1s2.19-.68,3.38-1c-.06.28-.1.47-.15.66l-.57,1.9c-.22.71-.45,1.42-.65,2.13-.07.28-.26.32-.46.37l-5.25,1.45-1,.27a.58.58,0,0,0-.44.45c-.29,1-.59,2-.9,3-.44,1.45-.89,2.89-1.33,4.34s-.89,2.89-1.33,4.34c-.23.75-.45,1.5-.67,2.25,0,0,0,.05,0,.11l.24.05h23.48a1.31,1.31,0,0,1,1.21,1.77c-.16.64-.36,1.27-.54,1.91s-.32,1-.47,1.49c-.32,1.09-.62,2.17-.94,3.26a1.69,1.69,0,0,1-1.63,1.31H221.12Z" transform="translate(-38.37 -53.78)"/><path class="cls-4" d="M357.89,95.37h57.19c0,.12,0,.24,0,.36v12.33c0,.12,0,.24,0,.36a1.69,1.69,0,0,1-.38.07H394.5c-.45,0-.45,0-.45.42,0,2.72,0,5.43,0,8.14l0,.06,3.27.18c1.21.08,2.41.17,3.61.28s2.54.24,3.81.39a84.31,84.31,0,0,1,8.95,1.47,39.33,39.33,0,0,1,5.72,1.65,16.21,16.21,0,0,1,2.77,1.37,5.26,5.26,0,0,1,1.58,1.57,1.76,1.76,0,0,1-.07,1.69,4.92,4.92,0,0,1-1.27,1.34,12.77,12.77,0,0,1-3.07,1.53c-1.28.42-2.56.86-3.87,1.21a62.84,62.84,0,0,1-6.66,1.35c-1.13.17-2.26.35-3.39.5-.94.12-1.89.2-2.83.28-1.39.13-2.78.24-4.17.35l-2.26.16c-.71.05-1.42.08-2.13.12l0,.06v27.52H378.9V132.58l-.54-.06c-1.18-.07-2.36-.11-3.53-.2-1.44-.1-2.87-.23-4.31-.36-1-.1-2-.19-3-.31s-1.72-.23-2.58-.38c-2-.35-4-.69-6-1.09a33.22,33.22,0,0,1-5.52-1.61,11.16,11.16,0,0,1-3.39-1.84,2.73,2.73,0,0,1-1.08-1.52,1.89,1.89,0,0,1,.42-1.57,7.9,7.9,0,0,1,3.23-2.2,33.73,33.73,0,0,1,6.6-2c1.25-.27,2.5-.53,3.77-.73,1.6-.26,3.21-.47,4.82-.68,1-.13,2.08-.24,3.12-.35s2-.2,3-.26c1.65-.12,3.3-.2,4.95-.3l0-.06q0-4.09,0-8.19v-.37H358.24a1.69,1.69,0,0,1-.38-.07c0-.12,0-.24,0-.36V95.73C357.88,95.61,357.89,95.49,357.89,95.37Zm31.57,35H390l3.14-.1,2.36-.11c1.26-.07,2.53-.14,3.79-.23s2.53-.21,3.79-.34,2.29-.24,3.43-.4c1.6-.24,3.2-.47,4.78-.78,1.34-.26,2.66-.6,4-.95a12.6,12.6,0,0,0,4.34-1.91,1.57,1.57,0,0,0,0-2.69,8.9,8.9,0,0,0-2.29-1.24,30.7,30.7,0,0,0-5.42-1.52c-1.22-.24-2.44-.44-3.67-.63s-2.77-.4-4.16-.56c-1-.13-2.07-.2-3.1-.28-1.28-.11-2.56-.19-3.84-.29l-1,0-2.06-.12,0,.06c0,.61,0,1.23,0,1.84,0,2.55,0,5.1,0,7.66l0,0c-.82.06-1.63.14-2.44.17-1.07,0-2.13,0-3.2,0-2.31,0-4.61,0-6.92-.09-.84,0-1.69-.08-2.53-.13l0,0v-9.48l0-.06-1.17,0-2.07.11-3.19.23c-1,.07-1.94.14-2.9.24-1.32.15-2.63.32-3.94.49a59.72,59.72,0,0,0-6.91,1.32,19.29,19.29,0,0,0-4.17,1.46,4.34,4.34,0,0,0-1.71,1.25,1.32,1.32,0,0,0-.2,1.36,2.3,2.3,0,0,0,.88,1,11.37,11.37,0,0,0,3,1.41c1.21.35,2.41.73,3.64,1,1.89.39,3.8.69,5.7,1,.86.15,1.72.25,2.59.35s1.5.15,2.25.22,1.24.14,1.85.18l2.82.18c.81,0,1.61.12,2.41.16s1.86.09,2.79.11,1.95,0,2.92,0h6Z" transform="translate(-38.37 -53.78)"/></svg>