<svg id="Layer_1" data-name="Layer 1" xmlns="http://www.w3.org/2000/svg" viewBox="0 0 495.56 194.07"><defs><style>.cls-1{fill:#f39200;}.cls-2{fill:#1d71b8;}.cls-3{fill:#3aaa35;}.cls-4{fill:#fff;}</style></defs><rect class="cls-1" width="165.19" height="194.07" rx="2"/><rect class="cls-2" x="165.19" width="165.19" height="194.07" rx="2"/><rect class="cls-3" x="330.37" width="165.19" height="194.07" rx="2"/><path class="cls-4" d="M98.57,129.91c.05-.3.07-.57.14-.83.27-1,.56-2.09.84-3.13l1-3.54c.19-.69.24-.73.89-.57l3.51.81,6.46,1.51c1.71.4,3.41.78,5.11,1.16.55.13.57.13.75-.48s.4-1.42.59-2.13q1-3.49,1.89-7c.19-.69.36-1.38.55-2.07,0-.16.1-.3.18-.54,2.74.59,5.45,1.23,8.23,1.9,0,.31-.06.56-.12.79-.56,2-1.13,4.09-1.69,6.14-.42,1.53-.83,3.07-1.23,4.61-.14.54-.1.61.37.72l5.68,1.24a5.58,5.58,0,0,0,.28-.67c.44-1.62.86-3.25,1.3-4.88s.88-3.29,1.33-4.94c.09-.36.18-.72.28-1.07s.21-.47.61-.38l4.25,1,3.5.81a5.44,5.44,0,0,1-.09.77c-.71,2.65-1.44,5.29-2.16,7.94-.3,1.11-.59,2.23-.88,3.35,0,.08,0,.18,0,.34.23.1.46.2.69.28a45.45,45.45,0,0,1,7,2.93,19.36,19.36,0,0,1,6.14,4.82,11.09,11.09,0,0,1,2.46,5.84,15.11,15.11,0,0,1-.52,5.57,12,12,0,0,1-8.27,8.75l-1.39.4c.6.34,1.12.62,1.62.92a17.11,17.11,0,0,1,4,3.2,11.17,11.17,0,0,1,2.82,8.9,20.83,20.83,0,0,1-4.22,10.56,14.76,14.76,0,0,1-7.66,5.1,19.63,19.63,0,0,1-5,.85c-1.26,0-2.52.15-3.78.11-1.48,0-3-.2-4.45-.37s-2.74-.39-4.12-.57a5.06,5.06,0,0,0-.69,0c-.22.8-.46,1.6-.67,2.39q-.75,2.73-1.49,5.48c-.33,1.25-.66,2.5-1,3.75-.19.76-.23.81-.9.65-1.46-.33-2.91-.68-4.37-1l-2.64-.62c-.6-.14-.62-.16-.45-.84.28-1.12.58-2.23.88-3.35.34-1.27.69-2.53,1-3.8l1.05-3.87c.14-.51.1-.63-.34-.74l-5.29-1.27c-.45-.11-.5-.07-.63.4l-1.68,6.36c-.42,1.58-.83,3.16-1.26,4.74a5,5,0,0,1-.25.62,63.79,63.79,0,0,1-8.19-1.86,6.37,6.37,0,0,1,.1-.71c.46-1.74.93-3.47,1.39-5.21l1-3.68c.22-.8.44-1.6.65-2.4,0-.11.05-.22.09-.42-1.8-.53-3.6-.9-5.4-1.33L91,180.05l-5.48-1.29c.1-.31.14-.56.24-.78l2.94-6.24.54-1.19c.26-.58.34-.63.94-.49s1.47.37,2.21.54c1.17.26,2.33.56,3.51.77,1.35.24,2.85-.28,3.43-2.49s1.19-4.6,1.8-6.9c.57-2.12,1.16-4.22,1.73-6.33s1.19-4.51,1.79-6.76c.48-1.81,1-3.6,1.47-5.4s.92-3.43,1.38-5.15c.19-.71.38-1.42.56-2.14a3.54,3.54,0,0,0-1.46-4,8.15,8.15,0,0,0-2.79-1.05c-1.51-.36-3-.68-4.56-1C99,130.08,98.83,130,98.57,129.91ZM117.15,159c-.51,1.86-1,3.69-1.47,5.5s-1,3.6-1.47,5.41-1.06,3.6-1.4,5.41c.12.1.15.14.19.15,2.62.58,5.25,1.19,7.88,1.73a32.75,32.75,0,0,0,7.52.68,14.68,14.68,0,0,0,4.4-.71,6.58,6.58,0,0,0,4.55-4.33,6.32,6.32,0,0,0-.44-5.35,9.44,9.44,0,0,0-2.94-3,21.63,21.63,0,0,0-4.58-2.31A78.23,78.23,0,0,0,117.15,159Zm2.12-7.86a6.14,6.14,0,0,0,.64.19c2,.45,4,.94,6,1.33a31.27,31.27,0,0,0,3.61.47c.94.07,1.89,0,2.84,0a10.39,10.39,0,0,0,3.52-.65,6.14,6.14,0,0,0,4.2-4.66,5.9,5.9,0,0,0-.35-4,7.6,7.6,0,0,0-2.42-2.78,17.75,17.75,0,0,0-4.56-2.34,67.28,67.28,0,0,0-9.11-2.34c-.29-.06-.42.06-.5.36-.3,1.16-.64,2.31-1,3.47l-1.32,4.94c-.36,1.36-.73,2.72-1.09,4.08C119.6,149.8,119.45,150.43,119.27,151.1Z" transform="translate(-38.37 -53.78)"/><path class="cls-4" d="M256.11,183.08c0-.24.06-.41.1-.56.37-1.47.75-2.93,1.13-4.39s.76-2.91,1.14-4.37l1-4.06c.51-2,1-3.92,1.53-5.88.35-1.35.68-2.7,1-4.06s.73-2.8,1.09-4.21c.06-.24.11-.48.19-.82a3.13,3.13,0,0,0-.46.11l-7.09,2.45-.52.15a4.75,4.75,0,0,1,.07-.55c.41-1.45.82-2.9,1.24-4.34.12-.42.26-.83.36-1.26a.78.78,0,0,1,.55-.68c1.28-.42,2.55-.87,3.83-1.31s2.38-.84,3.57-1.23a.83.83,0,0,0,.55-.68c.51-2.06,1.05-4.11,1.57-6.16.22-.87.43-1.75.65-2.62.35-1.34.72-2.69,1.07-4s.68-2.7,1-4c.51-2,1-4,1.54-5.93.34-1.33.67-2.67,1-4,.39-1.48.78-3,1.16-4.44.18-.68.34-1.37.52-2.05l1.14-4.44c.14-.51.27-1,.4-1.55a2.06,2.06,0,0,1,1.94-1.77h10.84a1.69,1.69,0,0,1,1.18.38,2,2,0,0,1,.55,2c-.19.88-.42,1.75-.64,2.62s-.45,1.74-.68,2.61l-1.14,4.37c-.17.67-.34,1.33-.5,2L286,124.6c-.55,2.15-1.11,4.29-1.66,6.44s-1.16,4.55-1.75,6.82c-.34,1.3-.69,2.58-1,3.88a3.66,3.66,0,0,0,0,.41l4-1.37c1.32-.45,2.62-1,4.05-1.36-.08.39-.12.67-.19.93-.22.89-.45,1.78-.68,2.67s-.53,2-.77,3c-.09.39-.31.44-.55.52l-6.28,2-1.2.38a.76.76,0,0,0-.52.64c-.34,1.43-.71,2.86-1.08,4.28-.52,2-1.06,4.06-1.59,6.1l-1.59,6.09c-.27,1-.54,2.11-.8,3.17,0,0,0,.07,0,.15a2.29,2.29,0,0,0,.28.07h28.08c1.1.06,1.73,1.12,1.44,2.48-.18.9-.42,1.79-.65,2.67-.18.71-.38,1.4-.56,2.11-.38,1.52-.74,3-1.12,4.57a2.1,2.1,0,0,1-1.95,1.84h-43C256.65,183.12,256.41,183.09,256.11,183.08Z" transform="translate(-38.37 -53.78)"/><path class="cls-4" d="M420.42,112.2H488.8c0,.17,0,.35,0,.52V130c0,.17,0,.34,0,.51a1.82,1.82,0,0,1-.45.1h-24.2c-.53,0-.53,0-.53.6,0,3.81,0,7.62,0,11.43l0,.08c1.31.08,2.62.15,3.92.25s2.88.24,4.32.4,3,.34,4.55.55a88.93,88.93,0,0,1,10.7,2,43.43,43.43,0,0,1,6.84,2.33,18.11,18.11,0,0,1,3.32,1.92,6.71,6.71,0,0,1,1.88,2.21,2.82,2.82,0,0,1-.08,2.37,6.55,6.55,0,0,1-1.51,1.88,14,14,0,0,1-3.68,2.15c-1.53.6-3.06,1.21-4.62,1.71a65,65,0,0,1-8,1.89c-1.35.24-2.7.49-4.06.7-1.12.17-2.25.28-3.38.4-1.66.18-3.32.34-5,.49-.9.09-1.81.16-2.71.22l-2.54.18,0,.08c0,.19,0,.37,0,.56v38.09H445.55V164.48c-.24,0-.44-.07-.65-.08-1.41-.1-2.82-.16-4.23-.28-1.71-.15-3.43-.33-5.14-.52-1.21-.12-2.42-.26-3.62-.43-1-.15-2.07-.32-3.09-.53-2.39-.49-4.78-1-7.15-1.53a35.82,35.82,0,0,1-6.61-2.26,12.88,12.88,0,0,1-4.05-2.59,3.85,3.85,0,0,1-1.28-2.13,2.93,2.93,0,0,1,.49-2.21,9.55,9.55,0,0,1,3.87-3.08A35.59,35.59,0,0,1,422,146c1.5-.37,3-.74,4.5-1,1.92-.36,3.84-.65,5.77-1,1.24-.19,2.49-.34,3.73-.49s2.4-.28,3.6-.37c2-.16,3.95-.28,5.93-.42l0-.08v-12h-24.7a1.82,1.82,0,0,1-.45-.1c0-.17,0-.34,0-.51V112.72C420.41,112.55,420.42,112.37,420.42,112.2Zm37.75,49.14h.64l3.76-.13c.94,0,1.87-.1,2.81-.16,1.51-.1,3-.2,4.53-.33s3-.29,4.53-.47,2.74-.33,4.11-.57c1.91-.32,3.82-.66,5.71-1.09,1.6-.37,3.18-.84,4.76-1.33a14.07,14.07,0,0,0,5.19-2.68,2.43,2.43,0,0,0,.05-3.79,10.59,10.59,0,0,0-2.74-1.74,32.14,32.14,0,0,0-6.48-2.13c-1.46-.34-2.92-.62-4.38-.88-1.66-.3-3.32-.57-5-.8-1.23-.17-2.47-.28-3.71-.4-1.53-.14-3.06-.26-4.6-.39l-1.19-.08-2.47-.16,0,.08c0,.86,0,1.72,0,2.58,0,3.59,0,7.17,0,10.76l0,.07c-1,.09-1.94.2-2.91.24-1.28,0-2.55.07-3.83.06-2.76,0-5.51-.07-8.27-.13-1,0-2-.11-3-.17l0-.08V144.29l-.05-.08-1.4.07-2.47.16c-1.27.1-2.55.2-3.82.32s-2.31.19-3.47.34c-1.57.2-3.14.44-4.71.69a62.24,62.24,0,0,0-8.26,1.84,22.23,22.23,0,0,0-5,2.05,5.49,5.49,0,0,0-2.05,1.77,2.15,2.15,0,0,0-.24,1.91,3.23,3.23,0,0,0,1.07,1.43,12.35,12.35,0,0,0,3.63,2c1.44.5,2.88,1,4.35,1.4,2.26.55,4.54,1,6.82,1.42,1,.21,2,.35,3.09.5.89.12,1.8.2,2.7.3.73.08,1.47.19,2.21.25,1.12.1,2.25.17,3.37.25,1,.08,1.92.17,2.88.23s2.22.13,3.33.16,2.33,0,3.49.06h7.13Z" transform="translate(-38.37 -53.78)"/></svg>