<svg id="Layer_1" data-name="Layer 1" xmlns="http://www.w3.org/2000/svg" viewBox="0 0 297.72 342.72"><defs><style>.cls-1{fill:#75661a;}.cls-2{fill:#1c1c2e;}.cls-3{fill:#d4af37;}</style></defs><path class="cls-1" d="M125.7,342.41v-9.29c.1-.15.27-.29.28-.44a58.57,58.57,0,0,1,3.15-14.33,81.67,81.67,0,0,1,7.55-16.52c2.77-4.65,5.86-9.12,9-13.54,2.29-3.25,4.79-6.36,7.34-9.41s5.16-5.92,7.84-8.78c2.46-2.62,5-5.13,7.59-7.65,2.75-2.7,5.5-5.41,8.35-8s5.79-5.1,8.72-7.61c3.17-2.72,6.35-5.43,9.58-8.08,2-1.65,4.08-3.18,6.12-4.76,2.84-2.21,5.66-4.46,8.53-6.64,2.09-1.59,4.23-3.1,6.35-4.66,2.46-1.8,4.9-3.63,7.37-5.41,1.61-1.15,3.29-2.2,4.91-3.33,2.41-1.68,4.78-3.42,7.2-5.09,1.66-1.15,3.38-2.21,5.06-3.34,2.51-1.69,5-3.44,7.53-5.1s5-3.13,7.51-4.71c2.88-1.81,5.73-3.68,8.61-5.48,1.79-1.12,3.63-2.14,5.43-3.25,2.7-1.66,5.35-3.4,8.08-5,2-1.17,4.08-2.14,6-3.32,1.25-.76,2.36-1.74,3.68-2.74-1.94-.49-2.87-1.4-2.69-2.73a3.41,3.41,0,0,1,1-2.05c.49-.4,1.39-.33,2.15-.48l-2.56-1.18a2.38,2.38,0,0,1-1.29-3.51,1.58,1.58,0,0,0-.26-2.13c-1.65-1.61-3.3-3.24-5.08-4.72-2.53-2.1-5.13-4.11-7.77-6.07q-4.55-3.37-9.24-6.58c-2.44-1.66-5-3.16-7.5-4.73-3.47-2.18-6.92-4.42-10.44-6.53-2.94-1.77-6-3.35-8.94-5.08-3.87-2.27-7.7-4.6-11.53-6.89.19-.16.41-.46.7-.55,2-.64,4-1.22,6-1.83a16.93,16.93,0,0,1,8.74-.11c1.8.38,3.5,1.21,5.3,1.53a17.15,17.15,0,0,0,10.33-1.6,23.81,23.81,0,0,0,5.33-3.32,5.05,5.05,0,0,0,1.79-4.91,9.67,9.67,0,0,1-.06-2.74,3.27,3.27,0,0,1,3.71-2.66c3.15.75,6.33,1.51,9,3.47,2.46,1.79,5,3.55,7.27,5.51,1.7,1.45,4.43,2.14,5.9,1.16,3.45-2.31,6-5.55,8.75-8.55a31.29,31.29,0,0,1,5.13-4.78,11,11,0,0,1,8.55-1.42,27.35,27.35,0,0,1,9.37,3.61c2.54,1.6,4.95,3.29,6.59,5.86a4.62,4.62,0,0,0,4.2,2.23c.87,0,1.75,0,2.61,0,2.42.17,4.84.29,7.24.6,3.84.5,6.31,3.15,8.71,5.84a1.21,1.21,0,0,1,0,1.18c-1.52,1.55-3.14,3-4.68,4.53a57.48,57.48,0,0,0-9.32,12,43.42,43.42,0,0,0-5.77,22.64c0,1.08-.13,2.22,1.3,2.63.2.06.29.45.45.67,1,1.38.08,2.44-.68,3.61a2.29,2.29,0,0,1,2.63,2c.36,1.53-.62,2.55-2,3.23a83.05,83.05,0,0,0,7.3,18.56,145.84,145.84,0,0,0,16.39,24.7q7.39,9.06,15,17.95c3.69,4.31,7.59,8.43,11.3,12.71,4.1,4.72,8.18,9.45,12.12,14.3a130.54,130.54,0,0,1,14.61,22.61c5.14,10,8.66,20.45,9.39,31.77a57.09,57.09,0,0,1-2.94,22.62,50,50,0,0,1-7.7,14.64,123.27,123.27,0,0,1-8.8,10.53,81.92,81.92,0,0,1-9.52,8c-3.66,2.72-7.45,5.31-11.35,7.67-3.51,2.13-7.22,3.94-10.91,5.76-3,1.46-6,2.83-9.08,4.06-3.93,1.56-7.91,3-11.9,4.36q-4.54,1.57-9.17,2.88c-3.68,1-7.39,2-11.11,2.9-2.16.54-4.34,1-6.53,1.45-4.78.9-9.55,1.81-14.35,2.6-3.54.59-7.11,1.05-10.68,1.44-5,.55-10,1.26-15.08,1.43-14.33.48-28.68,1-43-.46-4.87-.5-9.75-1-14.62-1.46a93.33,93.33,0,0,1-15.49-2.61c-2.25-.59-4.57-.93-6.82-1.49-3.72-.92-7.43-1.85-11.11-2.92-3-.87-6-1.87-9-2.92-2.57-.91-5.13-1.84-7.6-3-3.74-1.71-7.49-3.43-11.05-5.48-3.88-2.24-7.6-4.77-11.28-7.33a54.68,54.68,0,0,1-10.31-9.8,48.16,48.16,0,0,1-10.21-20.09C126.44,346.42,126.11,344.41,125.7,342.41Z" transform="translate(-125.7 -101.93)"/><path class="cls-2" d="M125.7,342.41c.41,2,.74,4,1.23,6a48.16,48.16,0,0,0,10.21,20.09,54.68,54.68,0,0,0,10.31,9.8c3.68,2.56,7.4,5.09,11.28,7.33,3.56,2.05,7.31,3.77,11.05,5.48,2.47,1.13,5,2.06,7.6,3,3,1.05,6,2.05,9,2.92,3.68,1.07,7.39,2,11.11,2.92,2.25.56,4.57.9,6.82,1.49A93.33,93.33,0,0,0,219.79,404c4.87.46,9.75,1,14.62,1.46,14.31,1.49,28.66.94,43,.46,5-.17,10.06-.88,15.08-1.43,3.57-.39,7.14-.85,10.68-1.44,4.8-.79,9.57-1.7,14.35-2.6,2.19-.42,4.37-.91,6.53-1.45,3.72-.92,7.43-1.86,11.11-2.9q4.62-1.31,9.17-2.88c4-1.38,8-2.8,11.9-4.36,3.08-1.23,6.11-2.6,9.08-4.06,3.69-1.82,7.4-3.63,10.91-5.76,3.9-2.36,7.69-4.95,11.35-7.67a81.92,81.92,0,0,0,9.52-8,123.27,123.27,0,0,0,8.8-10.53,50,50,0,0,0,7.7-14.64,57.09,57.09,0,0,0,2.94-22.62c-.73-11.32-4.25-21.77-9.39-31.77a130.54,130.54,0,0,0-14.61-22.61c-3.94-4.85-8-9.58-12.12-14.3-3.71-4.28-7.61-8.4-11.3-12.71q-7.61-8.88-15-17.95a145.84,145.84,0,0,1-16.39-24.7,83.05,83.05,0,0,1-7.3-18.56c1.4-.68,2.38-1.7,2-3.23a2.29,2.29,0,0,0-2.63-2c.76-1.17,1.65-2.23.68-3.61-.16-.22-.25-.61-.45-.67-1.43-.41-1.3-1.55-1.3-2.63a43.42,43.42,0,0,1,5.77-22.64,57.48,57.48,0,0,1,9.32-12c1.54-1.53,3.16-3,4.68-4.53a1.21,1.21,0,0,0,0-1.18c-2.4-2.69-4.87-5.34-8.71-5.84-2.4-.31-4.82-.43-7.24-.6-.86-.06-1.74,0-2.61,0a4.62,4.62,0,0,1-4.2-2.23c-1.64-2.57-4-4.26-6.59-5.86a27.35,27.35,0,0,0-9.37-3.61,11,11,0,0,0-8.55,1.42,31.29,31.29,0,0,0-5.13,4.78c-2.78,3-5.3,6.24-8.75,8.55-1.47,1-4.2.29-5.9-1.16-2.32-2-4.81-3.72-7.27-5.51-2.69-2-5.87-2.72-9-3.47a3.27,3.27,0,0,0-3.71,2.66,9.67,9.67,0,0,0,.06,2.74,5.05,5.05,0,0,1-1.79,4.91,23.81,23.81,0,0,1-5.33,3.32,17.15,17.15,0,0,1-10.33,1.6c-1.8-.32-3.5-1.15-5.3-1.53a16.93,16.93,0,0,0-8.74.11c-2,.61-4,1.19-6,1.83-.29.09-.51.39-.7.55,3.83,2.29,7.66,4.62,11.53,6.89,3,1.73,6,3.31,8.94,5.08,3.52,2.11,7,4.35,10.44,6.53,2.51,1.57,5.06,3.07,7.5,4.73q4.69,3.19,9.24,6.58c2.64,2,5.24,4,7.77,6.07,1.78,1.48,3.43,3.11,5.08,4.72a1.58,1.58,0,0,1,.26,2.13,2.38,2.38,0,0,0,1.29,3.51l2.56,1.18c-.76.15-1.66.08-2.15.48a3.41,3.41,0,0,0-1,2.05c-.18,1.33.75,2.24,2.69,2.73-1.32,1-2.43,2-3.68,2.74-2,1.18-4.06,2.15-6,3.32-2.73,1.63-5.38,3.37-8.08,5-1.8,1.11-3.64,2.13-5.43,3.25-2.88,1.8-5.73,3.67-8.61,5.48-2.49,1.58-5,3.1-7.51,4.71s-5,3.41-7.53,5.1c-1.68,1.13-3.4,2.19-5.06,3.34-2.42,1.67-4.79,3.41-7.2,5.09-1.62,1.13-3.3,2.18-4.91,3.33-2.47,1.78-4.91,3.61-7.37,5.41-2.12,1.56-4.26,3.07-6.35,4.66-2.87,2.18-5.69,4.43-8.53,6.64-2,1.58-4.13,3.11-6.12,4.76-3.23,2.65-6.41,5.36-9.58,8.08-2.93,2.51-5.88,5-8.72,7.61s-5.6,5.32-8.35,8c-2.56,2.52-5.13,5-7.59,7.65-2.68,2.86-5.33,5.77-7.84,8.78s-5,6.16-7.34,9.41c-3.13,4.42-6.22,8.89-9,13.54a81.67,81.67,0,0,0-7.55,16.52A58.57,58.57,0,0,0,126,332.68c0,.15-.18.29-.28.44V101.93H423.42V444.65H125.7Zm170.24,89.75a5.76,5.76,0,0,1-1.28-.49,11.33,11.33,0,0,0-6-2.43c-2.07-.13-4.14-.18-6.22-.27a12.79,12.79,0,0,0-6.88,2c-1.9,1.09-3.5,2.58-3.46,5.13a7.36,7.36,0,0,0,5.61,6.85c5.31,1.23,10.7,1.8,15.82-.9,3-1.56,4.46-4.08,3.34-7.57a3.58,3.58,0,0,1-.07-.93c1.44.94,2.82,2,4.32,2.8,2.15,1.21,4.58,1.12,7,1.2a16.14,16.14,0,0,0,10.26-2.68,5.7,5.7,0,0,0,1.3-8.41,10.76,10.76,0,0,0-7.38-3.79c-3.32-.41-6.78-1-10,.59a37.62,37.62,0,0,0-4.19,2,4.31,4.31,0,0,0-2.12,3.54C295.88,430,295.92,431.06,295.94,432.16Zm90.37-31.26c-.78-3.27-3.35-4.64-6-5.54-3.68-1.25-7.58-.9-11.35-.4a11.72,11.72,0,0,0-5.17,2.13,7.35,7.35,0,0,1-3.65,1.26c-2.59.39-5.16.85-7.74,1.3a2.05,2.05,0,0,0-1.07.38c-1.18,1.21-2.65,1.17-4.13,1-3.9-.42-7.74-.57-11.42,1.18-1.85.88-3.57,1.87-4.48,3.83-.31.65-.75.71-1.48.73-2.31.09-4.61.47-6.92.63a24.53,24.53,0,0,1-4.11,0c-.76-.07-1.47-.68-2.22-.72a107.84,107.84,0,0,1-12.66-1.58,17.74,17.74,0,0,0-11,1.74,6.87,6.87,0,0,0-3.51,3.34,2,2,0,0,1-1.46.76,36.58,36.58,0,0,0-4.2.11,21.84,21.84,0,0,0-6.51,1.88c-1.86,1-3.48,1.93-5.71,1.82-2.6-.13-5.24-.1-7.7,1.17a2.84,2.84,0,0,1-2-.26c-1.11-.45-2.1-1.32-3.23-1.58-5.15-1.17-10.26-1.29-15.19,1a6.17,6.17,0,0,0-3.39,7.37c.75,2.93,3.11,4.25,5.54,5,4.71,1.38,9.54,1.6,14.25-.38a1.77,1.77,0,0,1,1.48.07c2.89,2.25,6.39,2.62,9.77,2.87,2.22.16,4.51-.64,6.77-1,.16,0,.3-.18.46-.26,2.48-1.36,4.87-2.9,8-2.53a14,14,0,0,0,7.11-1.28,9.22,9.22,0,0,0,4.88-3.83,1.44,1.44,0,0,1,1.11-.69c3.65.28,7.29.69,10.93,1a33.94,33.94,0,0,0,4.51,0c1.91-.11,3.83-.62,5.7-.45a42.18,42.18,0,0,1,6.25,1.54c0,.27,0,.6,0,.93-.07,2.85,1.05,5,3.73,6.17,2.4,1,4.87,1.84,7.26,2.74a8.12,8.12,0,0,1-.46.76,5.87,5.87,0,0,0,.51,7.38,10.17,10.17,0,0,0,5.62,3.06c2.39.26,4.82.22,7.23.33A11.71,11.71,0,0,0,358,441.9c2-1.35,3.75-3,3.23-5.68a28.83,28.83,0,0,0-1.52-4.31l.59.12a28.16,28.16,0,0,0,5,1,29,29,0,0,0,6.5-.59,15.7,15.7,0,0,0,5.1-2,5.75,5.75,0,0,0,1.46-8.51c-1.54-2.17-4-3.06-6.37-3.58-5.07-1.12-10.05-.83-14.75,2a5.83,5.83,0,0,0-1.14,9,3.67,3.67,0,0,1,.54.77l-6.58-1.46a2.29,2.29,0,0,1,.32-.56c1.9-1.9,1.82-4.17,1-6.42-.76-2-2.55-3.11-4.49-3.81s-3.73-1.12-5.68-1.69c.54,0,1,0,1.51,0a18.93,18.93,0,0,0,9.46-2.06,8.57,8.57,0,0,1,3.57-.56c2.55-.08,5.15.28,7.65-.1a14.25,14.25,0,0,0,5.78-2.29,8,8,0,0,1,6.52-1.44c-.18.45-.34.79-.46,1.13a6,6,0,0,0,.56,5.9,9.46,9.46,0,0,0,5.81,3.68,33.93,33.93,0,0,0,7.06.54,13.66,13.66,0,0,0,7.17-1.64c1.91-1.14,3.79-2.37,4-4.79.14-1.44.77-1.46,1.79-1.13a26.31,26.31,0,0,0,4,1.29c3.8.55,7.64.88,11.31-.73a16.31,16.31,0,0,0,3.71-2,5.2,5.2,0,0,0,2.07-4.46c-.09-3.6-2.49-5.16-5.24-6.37a14.78,14.78,0,0,0-6.95-1.27,20.08,20.08,0,0,1-8.56-1.24c1.22-.86,2.22-1.48,3.12-2.22a5.71,5.71,0,0,0,1.17-7.49c-2.16-3.43-5.76-4-9.26-4.65a15.59,15.59,0,0,0-8.42,1.07,10.69,10.69,0,0,0-3.45,1.84,6.72,6.72,0,0,0-2,3.27c-.8,3.75,1.12,6,4.38,7.51l2.2,1Z" transform="translate(-125.7 -101.93)"/><path class="cls-3" d="M386.31,400.9,389.7,399l-2.2-1c-3.26-1.54-5.18-3.76-4.38-7.51a6.72,6.72,0,0,1,2-3.27,10.69,10.69,0,0,1,3.45-1.84,15.59,15.59,0,0,1,8.42-1.07c3.5.66,7.1,1.22,9.26,4.65a5.71,5.71,0,0,1-1.17,7.49c-.9.74-1.9,1.36-3.12,2.22a20.08,20.08,0,0,0,8.56,1.24,14.78,14.78,0,0,1,6.95,1.27c2.75,1.21,5.15,2.77,5.24,6.37a5.2,5.2,0,0,1-2.07,4.46,16.31,16.31,0,0,1-3.71,2c-3.67,1.61-7.51,1.28-11.31.73a26.31,26.31,0,0,1-4-1.29c-1-.33-1.65-.31-1.79,1.13-.24,2.42-2.12,3.65-4,4.79a13.66,13.66,0,0,1-7.17,1.64,33.93,33.93,0,0,1-7.06-.54,9.46,9.46,0,0,1-5.81-3.68,6,6,0,0,1-.56-5.9c.12-.34.28-.68.46-1.13a8,8,0,0,0-6.52,1.44,14.25,14.25,0,0,1-5.78,2.29c-2.5.38-5.1,0-7.65.1a8.57,8.57,0,0,0-3.57.56,18.93,18.93,0,0,1-9.46,2.06c-.49,0-1,0-1.51,0,1.95.57,3.86,1,5.68,1.69s3.73,1.8,4.49,3.81c.86,2.25.94,4.52-1,6.42a2.29,2.29,0,0,0-.32.56l6.58,1.46a3.67,3.67,0,0,0-.54-.77,5.83,5.83,0,0,1,1.14-9c4.7-2.85,9.68-3.14,14.75-2,2.34.52,4.83,1.41,6.37,3.58a5.75,5.75,0,0,1-1.46,8.51,15.7,15.7,0,0,1-5.1,2,29,29,0,0,1-6.5.59,28.16,28.16,0,0,1-5-1l-.59-.12a28.83,28.83,0,0,1,1.52,4.31c.52,2.7-1.23,4.33-3.23,5.68a11.71,11.71,0,0,1-7.35,1.88c-2.41-.11-4.84-.07-7.23-.33a10.17,10.17,0,0,1-5.62-3.06,5.87,5.87,0,0,1-.51-7.38,8.12,8.12,0,0,0,.46-.76c-2.39-.9-4.86-1.73-7.26-2.74-2.68-1.13-3.8-3.32-3.73-6.17,0-.33,0-.66,0-.93a42.18,42.18,0,0,0-6.25-1.54c-1.87-.17-3.79.34-5.7.45a33.94,33.94,0,0,1-4.51,0c-3.64-.29-7.28-.7-10.93-1a1.44,1.44,0,0,0-1.11.69,9.22,9.22,0,0,1-4.88,3.83,14,14,0,0,1-7.11,1.28c-3.09-.37-5.48,1.17-8,2.53-.16.08-.3.23-.46.26-2.26.39-4.55,1.19-6.77,1-3.38-.25-6.88-.62-9.77-2.87a1.77,1.77,0,0,0-1.48-.07c-4.71,2-9.54,1.76-14.25.38-2.43-.7-4.79-2-5.54-5a6.17,6.17,0,0,1,3.39-7.37c4.93-2.33,10-2.21,15.19-1,1.13.26,2.12,1.13,3.23,1.58a2.84,2.84,0,0,0,2,.26c2.46-1.27,5.1-1.3,7.7-1.17,2.23.11,3.85-.79,5.71-1.82a21.84,21.84,0,0,1,6.51-1.88,36.58,36.58,0,0,1,4.2-.11,2,2,0,0,0,1.46-.76,6.87,6.87,0,0,1,3.51-3.34,17.74,17.74,0,0,1,11-1.74,107.84,107.84,0,0,0,12.66,1.58c.75,0,1.46.65,2.22.72a24.53,24.53,0,0,0,4.11,0c2.31-.16,4.61-.54,6.92-.63.73,0,1.17-.08,1.48-.73.91-2,2.63-2.95,4.48-3.83,3.68-1.75,7.52-1.6,11.42-1.18,1.48.16,2.95.2,4.13-1a2.05,2.05,0,0,1,1.07-.38c2.58-.45,5.15-.91,7.74-1.3a7.35,7.35,0,0,0,3.65-1.26,11.72,11.72,0,0,1,5.17-2.13c3.77-.5,7.67-.85,11.35.4C383,396.26,385.53,397.63,386.31,400.9Z" transform="translate(-125.7 -101.93)"/><path class="cls-3" d="M295.94,432.16c0-1.1-.06-2.21-.05-3.31a4.31,4.31,0,0,1,2.12-3.54,37.62,37.62,0,0,1,4.19-2c3.26-1.6,6.72-1,10-.59a10.76,10.76,0,0,1,7.38,3.79,5.7,5.7,0,0,1-1.3,8.41,16.14,16.14,0,0,1-10.26,2.68c-2.38-.08-4.81,0-7-1.2-1.5-.83-2.88-1.86-4.32-2.8l0,.05-.34-.33,0,.05-.61-1.21Z" transform="translate(-125.7 -101.93)"/><path class="cls-3" d="M296.78,433.58a3.58,3.58,0,0,0,.07.93c1.12,3.49-.38,6-3.34,7.57-5.12,2.7-10.51,2.13-15.82.9a7.36,7.36,0,0,1-5.61-6.85c0-2.55,1.56-4,3.46-5.13a12.79,12.79,0,0,1,6.88-2c2.08.09,4.15.14,6.22.27a11.33,11.33,0,0,1,6,2.43,5.76,5.76,0,0,0,1.28.49l0,0c.2.41.4.81.61,1.21l0-.05.34.33Z" transform="translate(-125.7 -101.93)"/><path class="cls-2" d="M296.52,433.35c-.21-.4-.41-.8-.61-1.21C296.11,432.55,296.31,433,296.52,433.35Z" transform="translate(-125.7 -101.93)"/><path class="cls-2" d="M296.81,433.63l-.34-.33Z" transform="translate(-125.7 -101.93)"/></svg>