<svg id="Layer_1" data-name="Layer 1" xmlns="http://www.w3.org/2000/svg" xmlns:xlink="http://www.w3.org/1999/xlink" viewBox="0 0 351.72 132.01"><defs><style>.cls-1{fill:url(#linear-gradient);}.cls-2{fill:url(#linear-gradient-2);}.cls-3{fill:#00a86b;}</style><linearGradient id="linear-gradient" x1="95.39" y1="337.6" x2="228.71" y2="460.39" gradientTransform="matrix(1, 0.01, -0.01, 1, 10.62, 1.91)" gradientUnits="userSpaceOnUse"><stop offset="0" stop-color="#00a86b"/><stop offset="1" stop-color="#00a86b"/></linearGradient><linearGradient id="linear-gradient-2" x1="125.78" y1="304.61" x2="259.1" y2="427.4" xlink:href="#linear-gradient"/></defs><path class="cls-1" d="M240.2,455.3,191.9,455l0-7.12a67.61,67.61,0,0,0-13.11-40.54,67.66,67.66,0,0,0-13.66,40.36l-.05,7.12-48.29-.33.6-89.3,7.12.05A81.84,81.84,0,0,1,179,386.37,81.86,81.86,0,0,1,233.68,366l7.12.05Zm-34.27-14.46,20.13.13.41-60.46a67.8,67.8,0,0,0-37.78,16.26A81.88,81.88,0,0,1,205.93,440.84Zm-74.76-.51,20.13.14a81.78,81.78,0,0,1,17.83-43.83,67.75,67.75,0,0,0-37.56-16.77Z" transform="translate(-116.84 -324.64)"/><path class="cls-2" d="M179.06,373.88a24.62,24.62,0,1,1,24.79-24.46A24.66,24.66,0,0,1,179.06,373.88Zm.24-35a10.38,10.38,0,1,0,10.31,10.45A10.39,10.39,0,0,0,179.3,338.88Z" transform="translate(-116.84 -324.64)"/><path class="cls-3" d="M280.11,456.65a28.85,28.85,0,0,1-15.38-4.16A30.28,30.28,0,0,1,254,441.23a32.14,32.14,0,0,1-4-15.92,31.47,31.47,0,0,1,3.91-15.67,30.46,30.46,0,0,1,41.51-11.14,29.32,29.32,0,0,1,10.8,11.08,31.52,31.52,0,0,1,4,15.73,32,32,0,0,1-4,16,30.46,30.46,0,0,1-10.74,11.2A28.91,28.91,0,0,1,280.11,456.65Zm0-17.14a12.24,12.24,0,0,0,6.45-1.71,11.18,11.18,0,0,0,4.35-5,17.16,17.16,0,0,0,1.53-7.41,15.69,15.69,0,0,0-1.58-7.16,12.35,12.35,0,0,0-4.36-4.9,11.62,11.62,0,0,0-6.39-1.77,11.92,11.92,0,0,0-6.45,1.77,12.16,12.16,0,0,0-4.41,5,15.82,15.82,0,0,0-1.58,7.1,16.74,16.74,0,0,0,1.58,7.41,11.61,11.61,0,0,0,4.41,5A12.24,12.24,0,0,0,280.11,439.51Z" transform="translate(-116.84 -324.64)"/><path class="cls-3" d="M345.26,456.65a28.87,28.87,0,0,1-15.38-4.16,30.36,30.36,0,0,1-10.75-11.26,32.13,32.13,0,0,1-3.95-15.92,31.57,31.57,0,0,1,3.9-15.67,30,30,0,0,1,52.32-.06,31.62,31.62,0,0,1,4,15.73,32.14,32.14,0,0,1-4,16,30.57,30.57,0,0,1-10.75,11.2A28.88,28.88,0,0,1,345.26,456.65Zm0-17.14a12.19,12.19,0,0,0,6.45-1.71,11.2,11.2,0,0,0,4.36-5,17.16,17.16,0,0,0,1.52-7.41,15.56,15.56,0,0,0-1.58-7.16,12.4,12.4,0,0,0-4.35-4.9,11.63,11.63,0,0,0-6.4-1.77,11.87,11.87,0,0,0-6.44,1.77,12,12,0,0,0-4.41,5,15.69,15.69,0,0,0-1.59,7.1,16.61,16.61,0,0,0,1.59,7.41,11.49,11.49,0,0,0,4.41,5A12.18,12.18,0,0,0,345.26,439.51Z" transform="translate(-116.84 -324.64)"/><path class="cls-3" d="M383.84,455.3V366.42h17.42V455.3Z" transform="translate(-116.84 -324.64)"/><path class="cls-3" d="M436.32,456.53a23.32,23.32,0,0,1-13.46-4.1,28.37,28.37,0,0,1-9.44-11A34.93,34.93,0,0,1,410,425.56a35.7,35.7,0,0,1,3.46-16,27.38,27.38,0,0,1,9.38-11,23.76,23.76,0,0,1,13.52-4,21.38,21.38,0,0,1,10,2.33,19.92,19.92,0,0,1,7.3,6.42,18.26,18.26,0,0,1,3.16,9.37v25.71a18.49,18.49,0,0,1-3.11,9.37,19.39,19.39,0,0,1-7.23,6.42A21.67,21.67,0,0,1,436.32,456.53Zm3.62-17a11.06,11.06,0,0,0,8.88-3.92,15.13,15.13,0,0,0,3.34-10.16,16.63,16.63,0,0,0-1.47-7.16,11.45,11.45,0,0,0-4.3-4.9,11.92,11.92,0,0,0-6.45-1.77,11.42,11.42,0,0,0-6.28,1.77,12.6,12.6,0,0,0-4.41,5,16.73,16.73,0,0,0,0,14.45,12.6,12.6,0,0,0,4.41,5A11.42,11.42,0,0,0,439.94,439.51Zm11.54,15.79v-16l2.6-14.57-2.6-14.33V395.81h17.08V455.3Z" transform="translate(-116.84 -324.64)"/></svg>