<svg id="Layer_1" data-name="Layer 1" xmlns="http://www.w3.org/2000/svg" xmlns:xlink="http://www.w3.org/1999/xlink" viewBox="0 0 736.86 396.8"><defs><style>.cls-1{fill:#f6f6f6;stroke:#f6f6f6;stroke-miterlimit:10;}.cls-2{fill:url(#linear-gradient);}.cls-3{fill:url(#linear-gradient-2);}</style><linearGradient id="linear-gradient" x1="-2.84" y1="173.5" x2="337.32" y2="486.81" gradientUnits="userSpaceOnUse"><stop offset="0" stop-color="#00a86b"/><stop offset="1" stop-color="#00a86b"/></linearGradient><linearGradient id="linear-gradient-2" x1="74.91" y1="92.85" x2="414.42" y2="405.55" xlink:href="#linear-gradient"/></defs><path class="cls-1" d="M379,388.68V306.87H393l34.27,50.18H420l34.15-50.18h14.05v81.81H448.87v-51.1l3.33.93L430,371.07H417.19L395,338.51l3.33-.93v51.1Z" transform="translate(19.01 -65.76)"/><path class="cls-1" d="M512,390A35.06,35.06,0,0,1,495.22,386a30.85,30.85,0,0,1-11.71-10.66,27.29,27.29,0,0,1-4.32-15.07,26.85,26.85,0,0,1,4.25-14.83A30.29,30.29,0,0,1,495.09,335a38.56,38.56,0,0,1,33.59-.06,30.06,30.06,0,0,1,11.78,10.49,26.86,26.86,0,0,1,4.31,14.89,27.25,27.25,0,0,1-4.31,15.12A31,31,0,0,1,528.75,386,35.07,35.07,0,0,1,512,390Zm0-16.23a14.9,14.9,0,0,0,7-1.62,11.23,11.23,0,0,0,4.74-4.69,14.47,14.47,0,0,0,1.67-7,13.2,13.2,0,0,0-1.73-6.78A12.36,12.36,0,0,0,519,349a14.13,14.13,0,0,0-7-1.68,14.4,14.4,0,0,0-7,1.68,12.09,12.09,0,0,0-4.81,4.7,13.29,13.29,0,0,0-1.73,6.72,14.07,14.07,0,0,0,1.73,7,11.56,11.56,0,0,0,4.81,4.69A14.83,14.83,0,0,0,512,373.73Z" transform="translate(19.01 -65.76)"/><path class="cls-1" d="M583,390A35.06,35.06,0,0,1,566.22,386a30.85,30.85,0,0,1-11.71-10.66,27.29,27.29,0,0,1-4.32-15.07,26.77,26.77,0,0,1,4.26-14.83A30.22,30.22,0,0,1,566.1,335a38.56,38.56,0,0,1,33.59-.06,30.1,30.1,0,0,1,11.77,10.49,26.86,26.86,0,0,1,4.31,14.89,27.25,27.25,0,0,1-4.31,15.12A31,31,0,0,1,599.75,386,35.07,35.07,0,0,1,583,390Zm0-16.23a14.87,14.87,0,0,0,7-1.62,11.25,11.25,0,0,0,4.75-4.69,14.47,14.47,0,0,0,1.66-7,13.29,13.29,0,0,0-1.72-6.78A12.45,12.45,0,0,0,590,349a14.13,14.13,0,0,0-7-1.68,14.4,14.4,0,0,0-7,1.68,12.09,12.09,0,0,0-4.81,4.7,13.29,13.29,0,0,0-1.73,6.72,14.07,14.07,0,0,0,1.73,7,11.56,11.56,0,0,0,4.81,4.69A14.83,14.83,0,0,0,583,373.73Z" transform="translate(19.01 -65.76)"/><path class="cls-1" d="M625,388.68V304.55h19v84.13Z" transform="translate(19.01 -65.76)"/><path class="cls-1" d="M682.21,389.84a28.28,28.28,0,0,1-25-14.31,29.56,29.56,0,0,1-3.76-15,30.18,30.18,0,0,1,3.76-15.12A27.48,27.48,0,0,1,667.48,335a28.78,28.78,0,0,1,14.73-3.77,26.13,26.13,0,0,1,10.91,2.21,20.92,20.92,0,0,1,8,6.08,15.82,15.82,0,0,1,3.46,8.87v24.33a16.14,16.14,0,0,1-3.39,8.87,20.56,20.56,0,0,1-7.89,6.08A26.51,26.51,0,0,1,682.21,389.84Zm3.95-16.11a12.93,12.93,0,0,0,9.67-3.7,13.15,13.15,0,0,0,3.64-9.62,14,14,0,0,0-1.6-6.78,11.4,11.4,0,0,0-4.69-4.64,14.4,14.4,0,0,0-7-1.68,13.81,13.81,0,0,0-6.84,1.68,12.62,12.62,0,0,0-4.81,4.7,13.94,13.94,0,0,0,0,13.67,12.52,12.52,0,0,0,4.81,4.69A13.81,13.81,0,0,0,686.16,373.73Zm12.57,14.95V373.5l2.84-13.79-2.84-13.56V332.36h18.62v56.32Z" transform="translate(19.01 -65.76)"/><text x="19.01" y="-65.76"/><text x="19.01" y="-65.76"/><path class="cls-2" d="M349.56,462.56h-125V444.78a164.89,164.89,0,0,0-34.64-101,164.88,164.88,0,0,0-34.63,101v17.78h-125v-223H48.73a216.24,216.24,0,0,1,141.2,51.89,216.26,216.26,0,0,1,141.21-51.89h18.42ZM260.61,427h52.11V276a178.43,178.43,0,0,0-97.47,41.24A200.25,200.25,0,0,1,260.61,427ZM67.15,427h52.1a200.4,200.4,0,0,1,45.36-109.74A178.4,178.4,0,0,0,67.15,276Z" transform="translate(19.01 -65.76)"/><path class="cls-3" d="M189.93,260.26c-35.13,0-63.7-27.58-63.7-61.48s28.57-61.47,63.7-61.47,63.71,27.58,63.71,61.47S225.06,260.26,189.93,260.26Zm0-87.4c-14.81,0-26.87,11.63-26.87,25.92s12.06,25.93,26.87,25.93,26.87-11.63,26.87-25.93S204.75,172.86,189.93,172.86Z" transform="translate(19.01 -65.76)"/></svg>