<svg id="Layer_1" data-name="Layer 1" xmlns="http://www.w3.org/2000/svg" xmlns:xlink="http://www.w3.org/1999/xlink" viewBox="0 0 72.25 76.28"><defs><style>.cls-1{fill:url(#linear-gradient);}.cls-2{fill:url(#linear-gradient-2);}</style><linearGradient id="linear-gradient" x1="253.82" y1="392.52" x2="331.9" y2="464.44" gradientUnits="userSpaceOnUse"><stop offset="0" stop-color="#00a86b"/><stop offset="1" stop-color="#00a86b"/></linearGradient><linearGradient id="linear-gradient-2" x1="271.62" y1="373.2" x2="349.7" y2="445.11" xlink:href="#linear-gradient"/></defs><path class="cls-1" d="M334.2,459.43H305.91v-4.17a39.59,39.59,0,0,0-7.84-23.69,39.59,39.59,0,0,0-7.84,23.69v4.17H261.94v-52.3h4.17a47.91,47.91,0,0,1,32,12.17,47.94,47.94,0,0,1,32-12.17h4.17Zm-20.13-8.34h11.79V415.68a39.68,39.68,0,0,0-22.06,9.67A47.93,47.93,0,0,1,314.07,451.09Zm-43.79,0h11.8a47.92,47.92,0,0,1,10.26-25.74,39.65,39.65,0,0,0-22.06-9.67Z" transform="translate(-261.94 -383.14)"/><path class="cls-2" d="M298.07,412a14.42,14.42,0,1,1,14.42-14.42A14.44,14.44,0,0,1,298.07,412Zm0-20.5a6.08,6.08,0,1,0,6.08,6.08A6.09,6.09,0,0,0,298.07,391.48Z" transform="translate(-261.94 -383.14)"/></svg>