<svg id="Layer_1" data-name="Layer 1" xmlns="http://www.w3.org/2000/svg" xmlns:xlink="http://www.w3.org/1999/xlink" viewBox="0 0 300.53 143.85"><defs><style>.cls-1{fill:url(#linear-gradient);}.cls-2{fill:url(#linear-gradient-2);}.cls-3{fill:#00a86b;}</style><linearGradient id="linear-gradient" x1="109.63" y1="323.94" x2="242.95" y2="446.73" gradientTransform="translate(114.12 -32.69) rotate(15.44)" gradientUnits="userSpaceOnUse"><stop offset="0" stop-color="#00a86b"/><stop offset="1" stop-color="#00a86b"/></linearGradient><linearGradient id="linear-gradient-2" x1="140.02" y1="290.95" x2="273.34" y2="413.74" xlink:href="#linear-gradient"/></defs><path class="cls-1" d="M235.41,455.4l-46.56-12.86,1.89-6.86a67.56,67.56,0,0,0-2.12-42.56,67.67,67.67,0,0,0-23.68,35.43l-1.89,6.86-46.56-12.86,23.78-86.08,6.86,1.9a81.79,81.79,0,0,1,47.06,34.55,81.84,81.84,0,0,1,58.13-5.49l6.86,1.89Zm-29.34-22.87,19.41,5.36,16.09-58.28a67.63,67.63,0,0,0-40.7,5.89A81.81,81.81,0,0,1,206.07,432.53ZM134,412.62,153.41,418A81.79,81.79,0,0,1,182,380.29a67.64,67.64,0,0,0-31.91-26Z" transform="translate(-116.49 -312.53)"/><path class="cls-2" d="M197.52,360.88a24.61,24.61,0,1,1,30.28-17.17A24.64,24.64,0,0,1,197.52,360.88Zm9.32-33.73a10.38,10.38,0,1,0,7.24,12.77A10.38,10.38,0,0,0,206.84,327.15Z" transform="translate(-116.49 -312.53)"/><path class="cls-3" d="M271.31,456.39a23,23,0,0,1-11.89-3.07,22.72,22.72,0,0,1-11.37-20,22.16,22.16,0,0,1,11.28-19.69,25.2,25.2,0,0,1,23.83-.05,22.26,22.26,0,0,1,11.42,19.74,22.6,22.6,0,0,1-3.07,11.76,22.93,22.93,0,0,1-20.2,11.31Zm0-12.62a9.82,9.82,0,0,0,5-1.26,8.38,8.38,0,0,0,3.36-3.65,12.1,12.1,0,0,0,1.18-5.45,11,11,0,0,0-1.22-5.27,9.05,9.05,0,0,0-8.31-4.91,9.49,9.49,0,0,0-5,1.3,9.06,9.06,0,0,0-3.42,3.65,11.23,11.23,0,0,0-1.22,5.23,11.85,11.85,0,0,0,1.22,5.45,8.69,8.69,0,0,0,3.42,3.65A9.75,9.75,0,0,0,271.31,443.77Z" transform="translate(-116.49 -312.53)"/><path class="cls-3" d="M321.69,456.39a23.11,23.11,0,0,1-11.9-3.07,22.72,22.72,0,0,1-11.37-20,22.19,22.19,0,0,1,11.29-19.69,25.2,25.2,0,0,1,23.83-.05A22.23,22.23,0,0,1,345,433.32a22.56,22.56,0,0,1-11.37,20A23.07,23.07,0,0,1,321.69,456.39Zm0-12.62a9.8,9.8,0,0,0,5-1.26,8.4,8.4,0,0,0,3.37-3.65,12.1,12.1,0,0,0,1.18-5.45,11.11,11.11,0,0,0-1.22-5.27,9.05,9.05,0,0,0-8.31-4.91,9.55,9.55,0,0,0-5,1.3,9,9,0,0,0-3.41,3.65,11.11,11.11,0,0,0-1.22,5.23,11.73,11.73,0,0,0,1.22,5.45,8.67,8.67,0,0,0,3.41,3.65A9.82,9.82,0,0,0,321.69,443.77Z" transform="translate(-116.49 -312.53)"/><path class="cls-3" d="M351.51,455.4V390H365V455.4Z" transform="translate(-116.49 -312.53)"/><path class="cls-3" d="M392.09,456.3a18.68,18.68,0,0,1-10.41-3,21.28,21.28,0,0,1-7.3-8.11,24.76,24.76,0,0,1-2.67-11.67,25.28,25.28,0,0,1,2.67-11.76,20.57,20.57,0,0,1,7.26-8.11,19,19,0,0,1,10.45-2.93,17.19,17.19,0,0,1,7.74,1.71,15,15,0,0,1,5.64,4.73,13,13,0,0,1,2.45,6.9V443a13.2,13.2,0,0,1-2.4,6.9,14.84,14.84,0,0,1-5.6,4.73A17.4,17.4,0,0,1,392.09,456.3Zm2.8-12.53a8.77,8.77,0,0,0,6.87-2.88,10.8,10.8,0,0,0,2.58-7.48,11.7,11.7,0,0,0-1.14-5.27,8.58,8.58,0,0,0-3.32-3.61,9.55,9.55,0,0,0-5-1.3,9.1,9.1,0,0,0-4.85,1.3,9.39,9.39,0,0,0-3.41,3.65,11.78,11.78,0,0,0,0,10.64,9.39,9.39,0,0,0,3.41,3.65A9.1,9.1,0,0,0,394.89,443.77Zm8.92,11.63V443.59l2-10.72-2-10.55V411.6H417v43.8Z" transform="translate(-116.49 -312.53)"/></svg>