<svg id="Layer_1" data-name="Layer 1" xmlns="http://www.w3.org/2000/svg" xmlns:xlink="http://www.w3.org/1999/xlink" viewBox="0 0 404.55 130.25"><defs><style>.cls-1{fill:url(#linear-gradient);}.cls-2{fill:url(#linear-gradient-2);}.cls-3{fill:#00a86b;}</style><linearGradient id="linear-gradient" x1="102.08" y1="355.39" x2="235.39" y2="478.18" gradientUnits="userSpaceOnUse"><stop offset="0" stop-color="#00a86b"/><stop offset="1" stop-color="#00a86b"/></linearGradient><linearGradient id="linear-gradient-2" x1="132.46" y1="322.4" x2="265.78" y2="445.19" xlink:href="#linear-gradient"/></defs><path class="cls-1" d="M239.31,469.63H191v-7.12a67.63,67.63,0,0,0-13.38-40.45,67.56,67.56,0,0,0-13.38,40.45v7.12H116v-89.3h7.11a81.86,81.86,0,0,1,54.57,20.78,81.84,81.84,0,0,1,54.57-20.78h7.11ZM204.94,455.4h20.14V394.94a67.72,67.72,0,0,0-37.67,16.51A81.71,81.71,0,0,1,204.94,455.4Zm-74.76,0h20.14a81.77,81.77,0,0,1,17.52-43.95,67.69,67.69,0,0,0-37.66-16.51Z" transform="translate(-115.95 -339.38)"/><path class="cls-2" d="M177.63,388.62A24.62,24.62,0,1,1,202.25,364,24.65,24.65,0,0,1,177.63,388.62Zm0-35A10.38,10.38,0,1,0,188,364,10.39,10.39,0,0,0,177.63,353.62Z" transform="translate(-115.95 -339.38)"/><path class="cls-3" d="M263.4,455.4V390.05h10.68l26,40.08h-5.52l25.94-40.08h10.68V455.4H316.5V414.58l2.53.74-16.86,26h-9.74l-16.85-26,2.52-.74V455.4Z" transform="translate(-115.95 -339.38)"/><path class="cls-3" d="M364.46,456.42a25.6,25.6,0,0,1-12.74-3.15,24,24,0,0,1-8.9-8.52,22.68,22.68,0,0,1-3.28-12,22.2,22.2,0,0,1,3.24-11.85,23.38,23.38,0,0,1,8.85-8.37,28,28,0,0,1,25.52-.05,23.2,23.2,0,0,1,8.94,8.38,22.18,22.18,0,0,1,3.28,11.89,22.52,22.52,0,0,1-3.28,12.08,24,24,0,0,1-8.89,8.47A25.63,25.63,0,0,1,364.46,456.42Zm0-13a10.8,10.8,0,0,0,5.34-1.3,8.7,8.7,0,0,0,3.6-3.75,11.94,11.94,0,0,0,1.27-5.6,11,11,0,0,0-1.31-5.41,9.65,9.65,0,0,0-3.61-3.7,10.23,10.23,0,0,0-5.29-1.35,10.49,10.49,0,0,0-5.34,1.35,9.38,9.38,0,0,0-3.65,3.74,11,11,0,0,0-1.31,5.37,11.61,11.61,0,0,0,1.31,5.6,9,9,0,0,0,3.65,3.75A10.77,10.77,0,0,0,364.46,443.46Z" transform="translate(-115.95 -339.38)"/><path class="cls-3" d="M418.41,456.42a25.58,25.58,0,0,1-12.74-3.15,23.89,23.89,0,0,1-8.9-8.52,22.59,22.59,0,0,1-3.28-12,22.28,22.28,0,0,1,3.23-11.85,23.52,23.52,0,0,1,8.85-8.37,28,28,0,0,1,25.53-.05,23.34,23.34,0,0,1,8.94,8.38,22.18,22.18,0,0,1,3.28,11.89A22.52,22.52,0,0,1,440,444.8a24.07,24.07,0,0,1-8.9,8.47A25.57,25.57,0,0,1,418.41,456.42Zm0-13a10.76,10.76,0,0,0,5.33-1.3,8.72,8.72,0,0,0,3.61-3.75,12.06,12.06,0,0,0,1.26-5.6,10.89,10.89,0,0,0-1.31-5.41,9.56,9.56,0,0,0-3.6-3.7,10.25,10.25,0,0,0-5.29-1.35,10.49,10.49,0,0,0-5.34,1.35,9.41,9.41,0,0,0-3.66,3.74,11.12,11.12,0,0,0-1.31,5.37,11.72,11.72,0,0,0,1.31,5.6,9,9,0,0,0,3.66,3.75A10.77,10.77,0,0,0,418.41,443.46Z" transform="translate(-115.95 -339.38)"/><path class="cls-3" d="M450.34,455.4V388.2h14.43v67.2Z" transform="translate(-115.95 -339.38)"/><path class="cls-3" d="M493.8,456.32a20.6,20.6,0,0,1-11.15-3.1,22.14,22.14,0,0,1-7.82-8.33,24.61,24.61,0,0,1-2.85-12,25.18,25.18,0,0,1,2.85-12.08,21.41,21.41,0,0,1,7.78-8.33,21,21,0,0,1,11.19-3,19.12,19.12,0,0,1,8.29,1.76,16.07,16.07,0,0,1,6,4.86,13,13,0,0,1,2.62,7.08v19.43a13.25,13.25,0,0,1-2.57,7.09,15.7,15.7,0,0,1-6,4.85A19.19,19.19,0,0,1,493.8,456.32Zm3-12.86a9.58,9.58,0,0,0,7.35-3,10.84,10.84,0,0,0,2.76-7.69,11.65,11.65,0,0,0-1.22-5.41,8.81,8.81,0,0,0-3.56-3.7,10.48,10.48,0,0,0-5.33-1.35,10.05,10.05,0,0,0-5.2,1.35,9.79,9.79,0,0,0-3.65,3.74,11.66,11.66,0,0,0,0,10.93,9.89,9.89,0,0,0,3.65,3.75A10.14,10.14,0,0,0,496.8,443.46Zm9.55,11.94V443.27l2.15-11-2.15-10.83v-11h14.14v45Z" transform="translate(-115.95 -339.38)"/></svg>