<svg id="Layer_1" data-name="Layer 1" xmlns="http://www.w3.org/2000/svg" xmlns:xlink="http://www.w3.org/1999/xlink" viewBox="0 0 248.2 167.37"><defs><style>.cls-1{fill:url(#linear-gradient);}.cls-2{fill:url(#linear-gradient-2);}.cls-3{fill:#00a86b;}</style><linearGradient id="linear-gradient" x1="121" y1="423.53" x2="254.32" y2="546.32" gradientTransform="translate(183.92 -35.63) rotate(20.33)" gradientUnits="userSpaceOnUse"><stop offset="0" stop-color="#00a86b"/><stop offset="1" stop-color="#00a86b"/></linearGradient><linearGradient id="linear-gradient-2" x1="151.39" y1="390.54" x2="284.71" y2="513.33" xlink:href="#linear-gradient"/></defs><path class="cls-1" d="M239.19,558.37,193.9,541.58l2.48-6.67a67.54,67.54,0,0,0,1.5-42.58,67.56,67.56,0,0,0-26.6,33.28l-2.47,6.67L123.52,515.5l31-83.74,6.67,2.48a81.86,81.86,0,0,1,43.95,38.44,81.83,81.83,0,0,1,58.38-.52l6.68,2.47Zm-27.28-25.29,18.88,7,21-56.69a67.63,67.63,0,0,0-41.05,2.4A81.77,81.77,0,0,1,211.91,533.08Zm-70.1-26,18.88,7A81.78,81.78,0,0,1,192.4,479a67.69,67.69,0,0,0-29.58-28.58Z" transform="translate(-123.52 -391)"/><path class="cls-2" d="M209.51,461a24.62,24.62,0,1,1,31.63-14.53A24.64,24.64,0,0,1,209.51,461Zm12.16-32.82a10.38,10.38,0,1,0,6.13,13.34A10.39,10.39,0,0,0,221.67,428.15Z" transform="translate(-123.52 -391)"/><path class="cls-3" d="M271.25,462.38a24,24,0,0,1-12.53-3.29,24.3,24.3,0,0,1-8.76-8.91,24.84,24.84,0,0,1-3.23-12.59,24.38,24.38,0,0,1,3.18-12.4,23.87,23.87,0,0,1,8.71-8.77,26.11,26.11,0,0,1,25.12,0,23.49,23.49,0,0,1,8.8,8.76,24.38,24.38,0,0,1,3.23,12.45,24.79,24.79,0,0,1-3.23,12.64,24.45,24.45,0,0,1-8.75,8.86A24.1,24.1,0,0,1,271.25,462.38Zm0-13.56a10.22,10.22,0,0,0,5.26-1.35,9,9,0,0,0,3.54-3.93,13.25,13.25,0,0,0,1.25-5.86A12,12,0,0,0,280,432a9.87,9.87,0,0,0-3.55-3.88,9.72,9.72,0,0,0-5.21-1.4,9.91,9.91,0,0,0-5.25,1.4,9.64,9.64,0,0,0-3.6,3.93,12.13,12.13,0,0,0-1.29,5.61,12.86,12.86,0,0,0,1.29,5.86,9.28,9.28,0,0,0,3.6,3.93A10.16,10.16,0,0,0,271.25,448.82Z" transform="translate(-123.52 -391)"/><path class="cls-3" d="M302.68,461.32V391h14.2v70.32Z" transform="translate(-123.52 -391)"/><path class="cls-3" d="M345.45,462.29a19.41,19.41,0,0,1-11-3.25,22.7,22.7,0,0,1-7.7-8.72A27.06,27.06,0,0,1,324,437.78a27.72,27.72,0,0,1,2.81-12.64,22.06,22.06,0,0,1,7.65-8.72,19.83,19.83,0,0,1,11-3.14,17.81,17.81,0,0,1,8.16,1.84,16.07,16.07,0,0,1,5.94,5.08,14.1,14.1,0,0,1,2.58,7.41V448a14.37,14.37,0,0,1-2.53,7.41,15.71,15.71,0,0,1-5.9,5.08A18,18,0,0,1,345.45,462.29Zm2.95-13.47a9.12,9.12,0,0,0,7.23-3.1,11.69,11.69,0,0,0,2.72-8,12.76,12.76,0,0,0-1.2-5.66,9,9,0,0,0-3.5-3.88,9.93,9.93,0,0,0-5.25-1.4,9.55,9.55,0,0,0-5.12,1.4,10.12,10.12,0,0,0-3.59,3.93,12.86,12.86,0,0,0,0,11.43,10.16,10.16,0,0,0,3.59,3.92A9.55,9.55,0,0,0,348.4,448.82Zm9.4,12.5V448.63l2.12-11.53-2.12-11.33V414.25h13.92v47.07Z" transform="translate(-123.52 -391)"/></svg>