<svg id="Layer_1" data-name="Layer 1" xmlns="http://www.w3.org/2000/svg" xmlns:xlink="http://www.w3.org/1999/xlink" viewBox="0 0 410.65 130.25"><defs><style>.cls-1{fill:url(#linear-gradient);}.cls-2{fill:url(#linear-gradient-2);}.cls-3{fill:#00a86b;}</style><linearGradient id="linear-gradient" x1="78.43" y1="371.7" x2="211.75" y2="494.49" gradientUnits="userSpaceOnUse"><stop offset="0" stop-color="#00a86b"/><stop offset="1" stop-color="#00a86b"/></linearGradient><linearGradient id="linear-gradient-2" x1="108.82" y1="338.71" x2="242.14" y2="461.5" xlink:href="#linear-gradient"/></defs><path class="cls-1" d="M215.67,485.94h-48.3v-7.12A67.63,67.63,0,0,0,154,438.37a67.57,67.57,0,0,0-13.39,40.45v7.12H92.3v-89.3h7.12A81.88,81.88,0,0,1,154,417.42a81.84,81.84,0,0,1,54.56-20.78h7.12ZM181.3,471.7h20.13V411.24a67.66,67.66,0,0,0-37.66,16.52A81.83,81.83,0,0,1,181.3,471.7Zm-74.76,0h20.13a81.83,81.83,0,0,1,17.53-43.94,67.66,67.66,0,0,0-37.66-16.52Z" transform="translate(-92.3 -355.69)"/><path class="cls-2" d="M154,404.92a24.62,24.62,0,1,1,24.61-24.61A24.64,24.64,0,0,1,154,404.92Zm0-35a10.39,10.39,0,1,0,10.38,10.39A10.4,10.4,0,0,0,154,369.92Z" transform="translate(-92.3 -355.69)"/><path class="cls-3" d="M302.07,472.34V430.92L285,467.81H275.5l-17.1-36.89v41.42H245.26V410h9.34a11,11,0,0,1,9.91,6.26l15.77,33.12L296,416.24a11,11,0,0,1,9.92-6.28h9.23v62.38Z" transform="translate(-92.3 -355.69)"/><path class="cls-3" d="M373.43,447.61c0,15.08-10.66,25.28-26.47,25.28s-26.57-10.2-26.57-25.28,10.66-25.19,26.57-25.19S373.43,432.44,373.43,447.61Zm-38.79.19c0,8.09,5,13.6,12.32,13.6s12.32-5.51,12.32-13.6-5.06-13.61-12.32-13.61S334.64,439.71,334.64,447.8Z" transform="translate(-92.3 -355.69)"/><path class="cls-3" d="M431.74,447.61c0,15.08-10.66,25.28-26.47,25.28s-26.57-10.2-26.57-25.28,10.66-25.19,26.57-25.19S431.74,432.44,431.74,447.61ZM393,447.8c0,8.09,5,13.6,12.32,13.6s12.32-5.51,12.32-13.6-5.06-13.61-12.32-13.61S393,439.71,393,447.8Z" transform="translate(-92.3 -355.69)"/><path class="cls-3" d="M437,472.34v-54.1a8.28,8.28,0,0,1,8.28-8.28h5.88v62.38Z" transform="translate(-92.3 -355.69)"/><path class="cls-3" d="M489.07,466.55c-3.31,4.14-8.64,6.44-15.53,6.44-10.57,0-17-6.44-17-15.45,0-9.28,6.71-14.8,18.85-14.89H489v-.92c0-5.24-3.49-8.27-10.29-8.27A31.29,31.29,0,0,0,464,437.78L459.57,428c7.35-3.68,13.69-5.7,22.33-5.7,13.24,0,20.87,6.62,21,17.74l.1,32.27H489.07ZM489,455.43V451H477.86c-5.42,0-8.09,1.66-8.09,5.61,0,3.77,2.94,6.25,7.72,6.25C483.47,462.87,488.16,459.66,489,455.43Z" transform="translate(-92.3 -355.69)"/></svg>