<svg id="Layer_1" data-name="Layer 1" xmlns="http://www.w3.org/2000/svg" viewBox="0 0 305.28 344.06"><defs><style>.cls-1{fill:#1d1d1b;}.cls-2{fill:#e52322;}</style></defs><path class="cls-1" d="M296.89,374.7a4.64,4.64,0,0,1,3.37,1.3,5.54,5.54,0,0,1,.68-3.5h-7.15a5,5,0,0,1,1.18,2.56A5,5,0,0,1,296.89,374.7Z" transform="translate(-144.33 -130.67)"/><path class="cls-2" d="M432.09,239.43c-51.5-.35-98.71,20-134.69,53.81C261.88,259,215,238,163.45,237.6l-17.52-.12-1.6,235.19,118.9.8.12-18.74q.06-7.35.65-14.56c.14-1.72.32-3.42.51-5.13-.46,1.71-.86,3.45-1.18,5.22.32-1.77.72-3.51,1.18-5.22A185.36,185.36,0,0,1,297,348.42l.27.41c0-.19,0-.38,0-.57,0,.19,0,.38,0,.57a186.38,186.38,0,0,1,31.95,106.35l-.13,18.74,118.9.81,1.6-235.19ZM229.19,435.75l-49.56-.33,1.08-159.24C216,280.37,248,296.34,273.13,320.3A224,224,0,0,0,229.19,435.75Zm184,1.25-49.56-.33a224.06,224.06,0,0,0-42.36-116c25.48-23.61,57.67-39.15,93-42.86Z" transform="translate(-144.33 -130.67)"/><path class="cls-2" d="M297.62,260.34c-33.42-.23-60.4-29.5-60.16-65.25s27.63-64.65,61-64.42,60.4,29.5,60.16,65.25S331,260.56,297.62,260.34Zm.63-92.18c-14.1-.1-25.65,12.09-25.75,27.17s11.28,27.42,25.37,27.52,25.65-12.09,25.75-27.17S312.34,168.25,298.25,168.16Z" transform="translate(-144.33 -130.67)"/></svg>