<svg xmlns="http://www.w3.org/2000/svg" xmlns:xlink="http://www.w3.org/1999/xlink" viewBox="0 0 72.25 76.28"><defs><style>.cls-1{fill:url(#linear-gradient);}.cls-2{fill:url(#linear-gradient-2);}</style><linearGradient id="linear-gradient" x1="-8.12" y1="9.38" x2="69.96" y2="81.29" gradientUnits="userSpaceOnUse"><stop offset="0" stop-color="#21ce99"/><stop offset="1" stop-color="#21ce99"/></linearGradient><linearGradient id="linear-gradient-2" x1="9.67" y1="-9.95" x2="87.75" y2="61.97" xlink:href="#linear-gradient"/></defs><g id="Layer_2" data-name="Layer 2"><g id="Layer_1-2" data-name="Layer 1"><path class="cls-1" d="M72.25,76.28H44V72.12a39.64,39.64,0,0,0-7.83-23.7,39.58,39.58,0,0,0-7.84,23.7v4.16H0V24H4.17a48,48,0,0,1,32,12.17A48,48,0,0,1,68.08,24h4.17ZM52.12,68h11.8V32.54a39.58,39.58,0,0,0-22.06,9.67A47.85,47.85,0,0,1,52.12,68ZM8.34,68H20.13A47.79,47.79,0,0,1,30.4,42.21,39.61,39.61,0,0,0,8.34,32.54Z"/><path class="cls-2" d="M36.13,28.84A14.42,14.42,0,1,1,50.54,14.42,14.44,14.44,0,0,1,36.13,28.84Zm0-20.5a6.08,6.08,0,1,0,6.08,6.08A6.08,6.08,0,0,0,36.13,8.34Z"/></g></g></svg>